<?xml version="1.0" standalone="no"?>
<!DOCTYPE svg PUBLIC "-//W3C//DTD SVG 20010904//EN"
 "http://www.w3.org/TR/2001/REC-SVG-20010904/DTD/svg10.dtd">
<svg version="1.0" xmlns="http://www.w3.org/2000/svg"
 width="225.000000pt" height="225.000000pt" viewBox="0 0 225.000000 225.000000"
 preserveAspectRatio="xMidYMid meet">

<g transform="translate(0.000000,225.000000) scale(0.100000,-0.100000)"
fill="#000000" stroke="none">
<path d="M737 2140 c-94 -24 -183 -90 -232 -174 -50 -85 -65 -179 -75 -451 -5
-137 -14 -288 -20 -335 -29 -244 -22 -483 17 -605 91 -283 336 -471 642 -491
222 -15 416 61 581 226 142 142 204 293 204 495 0 224 -68 362 -344 705 -65
80 -150 192 -190 250 -158 226 -234 309 -328 355 -45 23 -73 29 -137 31 -44 2
-97 -1 -118 -6z m245 -34 c73 -35 173 -133 258 -255 116 -166 183 -256 284
-382 166 -205 242 -325 286 -453 122 -357 -85 -755 -460 -882 -378 -128 -782
65 -905 431 -47 138 -51 334 -15 680 5 50 10 146 10 215 0 274 29 432 93 526
94 136 300 191 449 120z"/>
<path d="M1032 1185 c-153 -47 -243 -257 -182 -419 61 -162 227 -227 373 -148
56 30 87 64 125 136 24 45 27 62 27 146 0 79 -4 103 -23 141 -63 127 -191 185
-320 144z"/>
</g>
</svg>
