<?xml version="1.0" standalone="no"?>
<!DOCTYPE svg PUBLIC "-//W3C//DTD SVG 20010904//EN"
 "http://www.w3.org/TR/2001/REC-SVG-20010904/DTD/svg10.dtd">
<svg version="1.0" xmlns="http://www.w3.org/2000/svg"
 width="400.000000pt" height="400.000000pt" viewBox="0 0 400.000000 400.000000"
 preserveAspectRatio="xMidYMid meet">

<g transform="translate(0.000000,400.000000) scale(0.100000,-0.100000)"
fill="#000000" stroke="none">
<path d="M0 2000 l0 -2000 2000 0 2000 0 0 2000 0 2000 -2000 0 -2000 0 0
-2000z m1037 938 c32 -11 69 -28 83 -36 53 -33 133 -126 164 -191 l31 -66 3
-403 c3 -302 0 -407 -9 -418 -15 -19 -328 -21 -347 -2 -9 9 -12 103 -12 359 0
204 -4 358 -10 374 l-10 25 -172 -2 -172 -3 -13 -25 c-19 -37 -14 -1073 5
-1092 10 -10 97 -14 375 -18 l362 -5 -1 -96 c-1 -86 -5 -102 -30 -149 -31 -57
-76 -99 -139 -129 -37 -18 -65 -19 -384 -20 l-345 -1 -52 25 c-29 14 -70 45
-92 70 -74 85 -72 58 -72 804 0 719 0 722 54 813 51 88 154 168 256 199 14 4
125 8 247 8 204 1 227 -1 280 -21z m872 -36 c70 -21 133 -68 148 -112 8 -25
12 -154 12 -442 l1 -407 -82 -3 c-46 -2 -98 -2 -115 0 l-33 3 0 200 0 200
-112 -3 -113 -3 -2 -185 c-1 -102 -2 -192 -2 -200 -1 -12 -19 -15 -108 -13
l-108 2 -3 416 c-2 459 -4 450 60 498 50 38 106 59 178 67 87 10 213 2 279
-18z m904 -49 c-1 -38 -2 -74 -2 -80 -1 -10 -30 -13 -111 -13 l-110 0 -2 -412
-3 -413 -90 -3 c-146 -5 -130 -57 -130 415 l0 408 -117 3 -118 3 0 79 0 80
343 0 342 0 -2 -67z m745 -10 l-3 -78 -112 -3 -113 -3 0 -409 0 -410 -22 -5
c-13 -3 -61 -5 -108 -3 l-85 3 -3 412 -2 412 -118 3 -117 3 -3 78 -3 77 346 0
346 0 -3 -77z m-2075 -1014 c74 -20 77 -28 77 -214 l0 -165 -45 0 -45 0 0 81
0 80 -42 -3 -43 -3 -1 -50 c-4 -114 0 -105 -44 -105 l-40 0 0 168 c0 149 2
171 18 185 39 36 98 45 165 26z m1126 1 c57 -16 60 -27 61 -212 l0 -168 -40 0
-40 0 0 80 0 80 -40 0 -40 0 0 -80 0 -80 -45 0 -45 0 0 165 c0 166 0 166 26
190 36 34 99 44 163 25z m309 1 c41 -1 42 -2 42 -36 0 -34 -1 -35 -40 -35
l-40 0 0 -150 0 -150 -45 0 -45 0 0 149 0 150 -42 3 c-40 3 -43 5 -46 35 -4
36 7 40 113 36 33 -1 79 -2 103 -2z m717 -76 l0 -80 40 0 40 0 3 83 3 82 39 0
40 0 0 -93 c0 -100 -7 -116 -57 -131 -21 -7 -23 -13 -23 -87 l0 -79 -45 0 -45
0 0 80 c0 44 -3 80 -7 81 -65 6 -80 29 -81 121 -2 104 1 110 51 106 l42 -3 0
-80z m-1826 46 c27 -26 31 -36 31 -83 0 -30 -5 -59 -11 -65 -8 -8 -8 -17 0
-31 14 -25 14 -82 1 -116 -15 -41 -58 -56 -160 -56 l-90 0 0 190 0 190 99 0
c95 0 100 -1 130 -29z m282 0 l29 -29 0 -132 0 -132 -29 -29 c-27 -27 -35 -29
-101 -29 -66 0 -74 2 -102 30 l-30 30 4 141 c3 134 4 142 27 160 18 15 39 19
98 19 69 0 77 -2 104 -29z m280 0 c25 -25 29 -37 29 -83 0 -56 -20 -98 -46
-98 -8 0 -14 -4 -14 -10 0 -5 5 -10 10 -10 20 0 50 -65 50 -107 l0 -43 -45 0
-45 0 0 40 c0 35 -5 43 -32 60 -18 11 -36 20 -40 20 -5 0 -8 -27 -8 -60 l0
-60 -45 0 -45 0 0 183 c0 101 3 187 7 190 3 4 49 7 100 7 91 0 96 -1 124 -29z
m844 4 c24 -23 25 -29 25 -160 l0 -137 -29 -29 c-27 -27 -35 -29 -101 -29 -66
0 -74 2 -101 29 l-29 29 0 135 c0 128 1 135 25 161 22 24 30 26 105 26 73 0
83 -3 105 -25z m271 6 c26 -16 32 -27 38 -70 8 -58 -12 -110 -45 -118 -25 -7
-24 -8 10 -41 21 -19 31 -38 32 -62 4 -70 3 -71 -43 -68 -43 3 -43 3 -46 44
-3 35 -7 43 -38 57 -19 10 -37 17 -39 17 -3 0 -5 -27 -5 -60 l0 -60 -45 0 -45
0 0 190 0 190 98 0 c78 0 103 -4 128 -19z"/>
<path d="M1616 2744 c-3 -8 -6 -62 -6 -119 0 -76 4 -106 14 -114 9 -8 50 -11
117 -9 l104 3 0 125 0 125 -111 3 c-95 2 -113 0 -118 -14z"/>
<path d="M1384 1756 c-3 -8 -4 -29 -2 -48 3 -31 5 -33 43 -33 l40 0 3 48 3 47
-41 0 c-26 0 -43 -5 -46 -14z"/>
<path d="M2510 1720 l0 -50 40 0 40 0 0 50 0 50 -40 0 -40 0 0 -50z"/>
<path d="M1670 1720 c0 -39 1 -40 35 -40 34 0 35 1 35 40 0 39 -1 40 -35 40
-34 0 -35 -1 -35 -40z"/>
<path d="M1670 1565 c0 -45 0 -45 35 -45 35 0 35 0 35 45 0 45 0 45 -35 45
-35 0 -35 0 -35 -45z"/>
<path d="M1957 1643 l2 -117 30 -1 31 -1 0 118 0 118 -32 0 -33 0 2 -117z"/>
<path d="M2230 1720 l0 -40 40 0 40 0 0 40 0 40 -40 0 -40 0 0 -40z"/>
<path d="M3070 1645 l0 -115 40 0 40 0 0 115 0 115 -40 0 -40 0 0 -115z"/>
<path d="M3350 1720 l0 -40 40 0 40 0 0 40 0 40 -40 0 -40 0 0 -40z"/>
</g>
</svg>
