<?xml version="1.0" standalone="no"?>
<!DOCTYPE svg PUBLIC "-//W3C//DTD SVG 20010904//EN"
 "http://www.w3.org/TR/2001/REC-SVG-20010904/DTD/svg10.dtd">
<svg version="1.0" xmlns="http://www.w3.org/2000/svg"
 width="200.000000pt" height="200.000000pt" viewBox="0 0 200.000000 200.000000"
 preserveAspectRatio="xMidYMid meet">

<g transform="translate(0.000000,200.000000) scale(0.100000,-0.100000)"
fill="#000000" stroke="none">
<path d="M0 1000 l0 -1000 1000 0 1000 0 0 1000 0 1000 -1000 0 -1000 0 0
-1000z m1454 708 c-4 -13 -10 -33 -15 -45 l-9 -23 -370 0 -370 0 0 -295 0
-295 323 -2 322 -3 0 -45 0 -45 -322 -3 -323 -2 0 -295 0 -295 390 0 390 0 0
-45 0 -45 -440 0 -440 0 0 730 0 730 436 0 435 0 -7 -22z"/>
</g>
</svg>
