<?xml version="1.0" standalone="no"?>
<!DOCTYPE svg PUBLIC "-//W3C//DTD SVG 20010904//EN"
 "http://www.w3.org/TR/2001/REC-SVG-20010904/DTD/svg10.dtd">
<svg version="1.0" xmlns="http://www.w3.org/2000/svg"
 width="400.000000pt" height="400.000000pt" viewBox="0 0 400.000000 400.000000"
 preserveAspectRatio="xMidYMid meet">

<g transform="translate(0.000000,400.000000) scale(0.100000,-0.100000)"
fill="#000000" stroke="none">
<path d="M1188 2680 c-165 -28 -287 -89 -399 -200 -139 -137 -193 -272 -193
-480 0 -133 16 -205 71 -319 52 -110 177 -232 293 -288 232 -112 513 -107 753
13 l67 34 0 300 0 300 -260 0 -261 0 3 -92 3 -93 158 -3 157 -3 0 -152 0 -153
-55 -18 c-82 -26 -207 -37 -286 -26 -264 38 -429 229 -429 500 0 252 130 427
362 486 96 25 304 15 421 -20 48 -14 90 -26 93 -26 10 0 1 180 -10 189 -17 13
-112 38 -193 50 -81 12 -224 13 -295 1z"/>
<path d="M1853 2638 c2 -7 73 -233 157 -503 83 -269 172 -556 197 -637 45
-143 47 -148 73 -148 24 0 31 8 60 73 35 76 242 548 267 607 l15 34 16 -29 c8
-17 77 -165 152 -330 76 -165 143 -312 150 -327 16 -33 64 -40 73 -10 8 27
377 1224 387 1255 l9 27 -97 0 -97 0 -129 -430 c-71 -236 -130 -430 -131 -430
-1 0 -69 148 -151 330 -127 280 -152 330 -170 330 -18 0 -42 -48 -169 -330
-85 -190 -152 -325 -156 -318 -3 7 -46 146 -94 308 -124 421 -155 521 -161
531 -3 5 -50 9 -106 9 -76 0 -99 -3 -95 -12z"/>
</g>
</svg>
