<?xml version="1.0" standalone="no"?>
<!DOCTYPE svg PUBLIC "-//W3C//DTD SVG 20010904//EN"
 "http://www.w3.org/TR/2001/REC-SVG-20010904/DTD/svg10.dtd">
<svg version="1.0" xmlns="http://www.w3.org/2000/svg"
 width="162.000000pt" height="160.000000pt" viewBox="0 0 162.000000 160.000000"
 preserveAspectRatio="xMidYMid meet">

<g transform="translate(0.000000,160.000000) scale(0.100000,-0.100000)"
fill="#000000" stroke="none">
<path d="M1560 1329 c0 -6 -7 -9 -15 -5 -8 3 -15 1 -15 -5 0 -6 -7 -9 -15 -5
-8 3 -15 1 -15 -5 0 -6 -7 -9 -15 -5 -8 3 -15 1 -15 -5 0 -6 -7 -9 -15 -5 -8
3 -15 1 -15 -5 0 -6 -6 -9 -14 -6 -8 3 -17 3 -21 -1 -4 -4 -11 -8 -16 -8 -5
-1 -11 -3 -14 -4 -3 -1 -9 -4 -15 -5 -5 -1 -12 -4 -15 -5 -3 -1 -9 -4 -15 -5
-5 -1 -12 -4 -15 -5 -3 -1 -9 -4 -15 -5 -5 -1 -12 -4 -15 -5 -3 -1 -9 -4 -15
-5 -5 -1 -12 -4 -15 -5 -3 -1 -9 -4 -15 -5 -5 -1 -12 -4 -15 -5 -3 -1 -9 -4
-15 -5 -5 -1 -12 -4 -15 -5 -3 -1 -9 -4 -15 -5 -5 -1 -12 -4 -15 -5 -3 -1 -8
-3 -12 -5 -5 -1 -15 -5 -23 -8 -8 -4 -33 -13 -55 -21 -38 -13 -40 -15 -35 -47
3 -19 5 -66 5 -104 0 -124 -66 -221 -195 -289 -75 -38 -110 -86 -110 -151 0
-52 36 -113 80 -136 30 -16 58 -19 207 -19 l173 0 0 335 0 336 25 24 c31 32
75 32 111 1 l28 -23 -3 -394 c-1 -221 -7 -401 -12 -411 -14 -26 -32 -28 -289
-31 l-235 -2 -56 26 c-71 34 -133 95 -165 162 -36 78 -34 191 4 272 34 70 91
125 168 162 59 27 91 63 100 112 10 47 -3 98 -26 104 -11 3 -20 1 -20 -5 0 -6
-7 -8 -15 -4 -8 3 -15 1 -15 -5 0 -6 -7 -9 -15 -5 -8 3 -15 1 -15 -5 0 -6 -7
-9 -15 -5 -8 3 -15 1 -15 -5 0 -6 -6 -9 -14 -6 -7 3 -19 0 -25 -6 -6 -6 -11
-7 -11 -3 0 5 -7 3 -15 -4 -8 -7 -15 -9 -15 -5 0 4 -7 2 -15 -5 -8 -7 -15 -9
-15 -5 0 4 -7 2 -15 -5 -8 -7 -15 -9 -15 -5 0 4 -7 2 -15 -5 -8 -7 -15 -9 -15
-5 0 4 -7 2 -15 -5 -8 -7 -15 -9 -15 -5 0 4 -7 2 -15 -5 -8 -7 -15 -9 -15 -5
0 4 -7 2 -15 -5 -8 -7 -15 -9 -15 -5 0 4 -7 2 -15 -5 -8 -7 -15 -9 -15 -5 0 4
-7 2 -15 -5 -12 -10 -15 -48 -15 -227 0 -118 -4 -222 -10 -232 -16 -31 -65
-46 -100 -31 -17 7 -35 21 -40 31 -6 10 -10 107 -10 216 0 117 -4 192 -9 184
-5 -7 -14 -10 -20 -7 -6 4 -11 2 -11 -4 0 -7 -7 -10 -15 -6 -8 3 -15 1 -15 -5
0 -6 -7 -9 -15 -5 -8 3 -15 1 -15 -5 0 -6 -7 -9 -15 -5 -8 3 -15 1 -15 -5 0
-6 -7 -9 -15 -5 -8 3 -15 1 -15 -5 0 -6 -7 -9 -15 -5 -8 3 -15 1 -15 -5 0 -6
-6 -9 -14 -6 -8 3 -17 -1 -20 -9 -3 -9 -6 -165 -6 -348 0 -327 0 -334 23 -376
44 -84 4 -80 755 -80 734 0 708 -2 755 64 l22 31 3 606 c2 536 1 607 -13 613
-8 3 -15 1 -15 -5z"/>
</g>
</svg>
